<?xml version="1.0" standalone="no"?><!DOCTYPE svg PUBLIC "-//W3C//DTD SVG 1.1//EN" "http://www.w3.org/Graphics/SVG/1.1/DTD/svg11.dtd"><svg t="1521180096191" class="icon" style="" viewBox="0 0 1024 1024" version="1.1" xmlns="http://www.w3.org/2000/svg" p-id="2238" xmlns:xlink="http://www.w3.org/1999/xlink" width="200" height="200"><defs><style type="text/css"></style></defs><path d="M946.862 486.070l-404.183-404.165c-8.055-8.056-18.636-12.035-29.193-11.953-10.556-0.083-21.139 3.897-29.192 11.953l-404.183 404.165c-15.946 15.945-15.946 41.79 0 57.735 7.957 7.956 18.379 11.94 28.809 11.954v0.138h40.457c22.344 0 40.457 18.119 40.457 40.461v283.182c0 44.688 36.227 80.909 80.914 80.909h121.367c44.688 0 80.914-36.222 80.914-80.909v-121.366c0-22.335 18.112-40.449 40.455-40.449 22.344 0 40.457 18.113 40.457 40.449v121.366c0 44.688 36.227 80.909 80.912 80.909h121.369c44.686 0 80.912-36.222 80.912-80.909v-283.182c0-22.341 18.112-40.461 40.457-40.461h40.457v-0.138c10.43-0.015 20.854-3.999 28.811-11.955 15.947-15.944 15.947-41.789 0.001-57.734zM756.225 555.897v283.19c0 22.345-18.112 40.453-40.457 40.453h-40.457c-22.342 0-40.457-18.107-40.457-40.453v-121.362c0-44.688-36.227-80.913-80.912-80.913h-80.911c-44.688 0-80.914 36.226-80.914 80.913v121.362c0 22.345-18.112 40.453-40.457 40.453h-40.457c-22.342 0-40.455-18.107-40.455-40.453v-283.19c0-39.424-28.216-72.252-65.556-79.431l308.295-308.28 308.294 308.28c-37.34 7.178-65.556 40.006-65.556 79.431z" p-id="2239" fill="#cdcdcd"></path></svg>